<mxfile host="app.diagrams.net" modified="2021-05-28T21:37:12.374Z" agent="5.0 (Windows NT 10.0; Win64; x64) AppleWebKit/537.36 (KHTML, like Gecko) Chrome/90.0.4430.212 Safari/537.36" etag="QiHccIdb3nJU9wI512Kh" version="14.7.2" type="github" pages="2">
  <diagram id="R2lEEEUBdFMjLlhIrx00" name="Page-1">
    <mxGraphModel dx="1036" dy="414" grid="0" gridSize="10" guides="1" tooltips="1" connect="1" arrows="1" fold="1" page="1" pageScale="1" pageWidth="850" pageHeight="1100" math="0" shadow="0" extFonts="Permanent Marker^https://fonts.googleapis.com/css?family=Permanent+Marker">
      <root>
        <mxCell id="0" />
        <mxCell id="1" parent="0" />
        <mxCell id="C-vyLk0tnHw3VtMMgP7b-1" value="" style="edgeStyle=orthogonalEdgeStyle;endArrow=openThin;startArrow=ERone;endFill=0;startFill=0;" parent="1" source="C-vyLk0tnHw3VtMMgP7b-24" target="C-vyLk0tnHw3VtMMgP7b-6" edge="1">
          <mxGeometry width="100" height="100" relative="1" as="geometry">
            <mxPoint x="340" y="720" as="sourcePoint" />
            <mxPoint x="440" y="620" as="targetPoint" />
          </mxGeometry>
        </mxCell>
        <mxCell id="C-vyLk0tnHw3VtMMgP7b-2" value="Departamento" style="shape=table;startSize=30;container=1;collapsible=1;childLayout=tableLayout;fixedRows=1;rowLines=0;fontStyle=1;align=center;resizeLast=1;" parent="1" vertex="1">
          <mxGeometry x="450" y="120" width="273.5767059326172" height="129.2073745727539" as="geometry" />
        </mxCell>
        <mxCell id="C-vyLk0tnHw3VtMMgP7b-3" value="" style="shape=partialRectangle;collapsible=0;dropTarget=0;pointerEvents=0;fillColor=none;points=[[0,0.5],[1,0.5]];portConstraint=eastwest;top=0;left=0;right=0;bottom=1;" parent="C-vyLk0tnHw3VtMMgP7b-2" vertex="1">
          <mxGeometry y="30" width="273.5767059326172" height="30" as="geometry" />
        </mxCell>
        <mxCell id="C-vyLk0tnHw3VtMMgP7b-4" value="PK" style="shape=partialRectangle;overflow=hidden;connectable=0;fillColor=none;top=0;left=0;bottom=0;right=0;fontStyle=1;" parent="C-vyLk0tnHw3VtMMgP7b-3" vertex="1">
          <mxGeometry width="30" height="30" as="geometry" />
        </mxCell>
        <mxCell id="C-vyLk0tnHw3VtMMgP7b-5" value="departamento_id int NOT NULL " style="shape=partialRectangle;overflow=hidden;connectable=0;fillColor=none;top=0;left=0;bottom=0;right=0;align=left;spacingLeft=6;fontStyle=5;" parent="C-vyLk0tnHw3VtMMgP7b-3" vertex="1">
          <mxGeometry x="30" width="243.5767059326172" height="30" as="geometry" />
        </mxCell>
        <mxCell id="C-vyLk0tnHw3VtMMgP7b-6" value="" style="shape=partialRectangle;collapsible=0;dropTarget=0;pointerEvents=0;fillColor=none;points=[[0,0.5],[1,0.5]];portConstraint=eastwest;top=0;left=0;right=0;bottom=0;" parent="C-vyLk0tnHw3VtMMgP7b-2" vertex="1">
          <mxGeometry y="60" width="273.5767059326172" height="29" as="geometry" />
        </mxCell>
        <mxCell id="C-vyLk0tnHw3VtMMgP7b-7" value="FK1" style="shape=partialRectangle;overflow=hidden;connectable=0;fillColor=none;top=0;left=0;bottom=0;right=0;" parent="C-vyLk0tnHw3VtMMgP7b-6" vertex="1">
          <mxGeometry width="30" height="29" as="geometry" />
        </mxCell>
        <mxCell id="C-vyLk0tnHw3VtMMgP7b-8" value="encarregado_id  int NOT NULL" style="shape=partialRectangle;overflow=hidden;connectable=0;top=0;left=0;bottom=0;right=0;align=left;spacingLeft=6;fillColor=none;" parent="C-vyLk0tnHw3VtMMgP7b-6" vertex="1">
          <mxGeometry x="30" width="243.5767059326172" height="29" as="geometry" />
        </mxCell>
        <mxCell id="C-vyLk0tnHw3VtMMgP7b-9" value="" style="shape=partialRectangle;collapsible=0;dropTarget=0;pointerEvents=0;fillColor=none;points=[[0,0.5],[1,0.5]];portConstraint=eastwest;top=0;left=0;right=0;bottom=0;" parent="C-vyLk0tnHw3VtMMgP7b-2" vertex="1">
          <mxGeometry y="89" width="273.5767059326172" height="30" as="geometry" />
        </mxCell>
        <mxCell id="C-vyLk0tnHw3VtMMgP7b-10" value="" style="shape=partialRectangle;overflow=hidden;connectable=0;fillColor=none;top=0;left=0;bottom=0;right=0;" parent="C-vyLk0tnHw3VtMMgP7b-9" vertex="1">
          <mxGeometry width="30" height="30" as="geometry" />
        </mxCell>
        <mxCell id="C-vyLk0tnHw3VtMMgP7b-11" value="departamento_nome varchar NOT NULL" style="shape=partialRectangle;overflow=hidden;connectable=0;fillColor=none;top=0;left=0;bottom=0;right=0;align=left;spacingLeft=6;" parent="C-vyLk0tnHw3VtMMgP7b-9" vertex="1">
          <mxGeometry x="30" width="243.5767059326172" height="30" as="geometry" />
        </mxCell>
        <mxCell id="sF2YvuJd_1t2Ah5inh9u-1" value="" style="endArrow=none;html=1;exitX=-0.006;exitY=0.106;exitDx=0;exitDy=0;exitPerimeter=0;entryX=0.987;entryY=0.067;entryDx=0;entryDy=0;entryPerimeter=0;" edge="1" parent="C-vyLk0tnHw3VtMMgP7b-2" source="C-vyLk0tnHw3VtMMgP7b-9" target="C-vyLk0tnHw3VtMMgP7b-9">
          <mxGeometry width="50" height="50" relative="1" as="geometry">
            <mxPoint x="18" y="100" as="sourcePoint" />
            <mxPoint x="68" y="50" as="targetPoint" />
          </mxGeometry>
        </mxCell>
        <mxCell id="C-vyLk0tnHw3VtMMgP7b-13" value="Compras" style="shape=table;startSize=30;container=1;collapsible=1;childLayout=tableLayout;fixedRows=1;rowLines=0;fontStyle=1;align=center;resizeLast=1;" parent="1" vertex="1">
          <mxGeometry x="103" y="322" width="289.67" height="196" as="geometry" />
        </mxCell>
        <mxCell id="C-vyLk0tnHw3VtMMgP7b-14" value="" style="shape=partialRectangle;collapsible=0;dropTarget=0;pointerEvents=0;fillColor=none;points=[[0,0.5],[1,0.5]];portConstraint=eastwest;top=0;left=0;right=0;bottom=1;" parent="C-vyLk0tnHw3VtMMgP7b-13" vertex="1">
          <mxGeometry y="30" width="289.67" height="30" as="geometry" />
        </mxCell>
        <mxCell id="C-vyLk0tnHw3VtMMgP7b-15" value="PK" style="shape=partialRectangle;overflow=hidden;connectable=0;fillColor=none;top=0;left=0;bottom=0;right=0;fontStyle=1;" parent="C-vyLk0tnHw3VtMMgP7b-14" vertex="1">
          <mxGeometry width="30" height="30" as="geometry" />
        </mxCell>
        <mxCell id="C-vyLk0tnHw3VtMMgP7b-16" value="compra_id int NOT NULL " style="shape=partialRectangle;overflow=hidden;connectable=0;fillColor=none;top=0;left=0;bottom=0;right=0;align=left;spacingLeft=6;fontStyle=5;" parent="C-vyLk0tnHw3VtMMgP7b-14" vertex="1">
          <mxGeometry x="30" width="259.67" height="30" as="geometry" />
        </mxCell>
        <mxCell id="C-vyLk0tnHw3VtMMgP7b-17" value="" style="shape=partialRectangle;collapsible=0;dropTarget=0;pointerEvents=0;fillColor=none;points=[[0,0.5],[1,0.5]];portConstraint=eastwest;top=0;left=0;right=0;bottom=0;" parent="C-vyLk0tnHw3VtMMgP7b-13" vertex="1">
          <mxGeometry y="60" width="289.67" height="32" as="geometry" />
        </mxCell>
        <mxCell id="C-vyLk0tnHw3VtMMgP7b-18" value="FK1" style="shape=partialRectangle;overflow=hidden;connectable=0;fillColor=none;top=0;left=0;bottom=0;right=0;" parent="C-vyLk0tnHw3VtMMgP7b-17" vertex="1">
          <mxGeometry width="30" height="32" as="geometry" />
        </mxCell>
        <mxCell id="C-vyLk0tnHw3VtMMgP7b-19" value="encarregado_id int NOT NULL" style="shape=partialRectangle;overflow=hidden;connectable=0;fillColor=none;top=0;left=0;bottom=0;right=0;align=left;spacingLeft=6;" parent="C-vyLk0tnHw3VtMMgP7b-17" vertex="1">
          <mxGeometry x="30" width="259.67" height="32" as="geometry" />
        </mxCell>
        <mxCell id="C-vyLk0tnHw3VtMMgP7b-20" value="" style="shape=partialRectangle;collapsible=0;dropTarget=0;pointerEvents=0;fillColor=none;points=[[0,0.5],[1,0.5]];portConstraint=eastwest;top=0;left=0;right=0;bottom=0;" parent="C-vyLk0tnHw3VtMMgP7b-13" vertex="1">
          <mxGeometry y="92" width="289.67" height="30" as="geometry" />
        </mxCell>
        <mxCell id="C-vyLk0tnHw3VtMMgP7b-21" value="" style="shape=partialRectangle;overflow=hidden;connectable=0;fillColor=none;top=0;left=0;bottom=0;right=0;" parent="C-vyLk0tnHw3VtMMgP7b-20" vertex="1">
          <mxGeometry width="30" height="30" as="geometry" />
        </mxCell>
        <mxCell id="C-vyLk0tnHw3VtMMgP7b-22" value="compra_data date NOT NULL" style="shape=partialRectangle;overflow=hidden;connectable=0;fillColor=none;top=0;left=0;bottom=0;right=0;align=left;spacingLeft=6;" parent="C-vyLk0tnHw3VtMMgP7b-20" vertex="1">
          <mxGeometry x="30" width="259.67" height="30" as="geometry" />
        </mxCell>
        <mxCell id="C-vyLk0tnHw3VtMMgP7b-23" value="Encarregado" style="shape=table;startSize=30;container=1;collapsible=1;childLayout=tableLayout;fixedRows=1;rowLines=0;fontStyle=1;align=center;resizeLast=1;" parent="1" vertex="1">
          <mxGeometry x="120" y="120" width="250" height="100" as="geometry" />
        </mxCell>
        <mxCell id="C-vyLk0tnHw3VtMMgP7b-24" value="" style="shape=partialRectangle;collapsible=0;dropTarget=0;pointerEvents=0;fillColor=none;points=[[0,0.5],[1,0.5]];portConstraint=eastwest;top=0;left=0;right=0;bottom=1;" parent="C-vyLk0tnHw3VtMMgP7b-23" vertex="1">
          <mxGeometry y="30" width="250" height="30" as="geometry" />
        </mxCell>
        <mxCell id="C-vyLk0tnHw3VtMMgP7b-25" value="PK" style="shape=partialRectangle;overflow=hidden;connectable=0;fillColor=none;top=0;left=0;bottom=0;right=0;fontStyle=1;" parent="C-vyLk0tnHw3VtMMgP7b-24" vertex="1">
          <mxGeometry width="30" height="30" as="geometry" />
        </mxCell>
        <mxCell id="C-vyLk0tnHw3VtMMgP7b-26" value="encarregado_id int NOT NULL " style="shape=partialRectangle;overflow=hidden;connectable=0;fillColor=none;top=0;left=0;bottom=0;right=0;align=left;spacingLeft=6;fontStyle=5;" parent="C-vyLk0tnHw3VtMMgP7b-24" vertex="1">
          <mxGeometry x="30" width="220" height="30" as="geometry" />
        </mxCell>
        <mxCell id="C-vyLk0tnHw3VtMMgP7b-27" value="" style="shape=partialRectangle;collapsible=0;dropTarget=0;pointerEvents=0;fillColor=none;points=[[0,0.5],[1,0.5]];portConstraint=eastwest;top=0;left=0;right=0;bottom=0;" parent="C-vyLk0tnHw3VtMMgP7b-23" vertex="1">
          <mxGeometry y="60" width="250" height="30" as="geometry" />
        </mxCell>
        <mxCell id="C-vyLk0tnHw3VtMMgP7b-28" value="" style="shape=partialRectangle;overflow=hidden;connectable=0;fillColor=none;top=0;left=0;bottom=0;right=0;" parent="C-vyLk0tnHw3VtMMgP7b-27" vertex="1">
          <mxGeometry width="30" height="30" as="geometry" />
        </mxCell>
        <mxCell id="C-vyLk0tnHw3VtMMgP7b-29" value="encarregado_nome varchar NOT NULL" style="shape=partialRectangle;overflow=hidden;connectable=0;fillColor=none;top=0;left=0;bottom=0;right=0;align=left;spacingLeft=6;" parent="C-vyLk0tnHw3VtMMgP7b-27" vertex="1">
          <mxGeometry x="30" width="220" height="30" as="geometry" />
        </mxCell>
        <mxCell id="sF2YvuJd_1t2Ah5inh9u-6" value="" style="endArrow=none;html=1;rounded=0;" edge="1" parent="1">
          <mxGeometry relative="1" as="geometry">
            <mxPoint x="187" y="218" as="sourcePoint" />
            <mxPoint x="187" y="321" as="targetPoint" />
          </mxGeometry>
        </mxCell>
        <mxCell id="sF2YvuJd_1t2Ah5inh9u-9" value="" style="endArrow=none;html=1;" edge="1" parent="1" target="C-vyLk0tnHw3VtMMgP7b-20">
          <mxGeometry width="50" height="50" relative="1" as="geometry">
            <mxPoint x="106.5" y="444" as="sourcePoint" />
            <mxPoint x="349.5" y="444" as="targetPoint" />
          </mxGeometry>
        </mxCell>
        <mxCell id="sF2YvuJd_1t2Ah5inh9u-10" value="&lt;span style=&quot;text-align: left&quot;&gt;compra_equipamento_id int NOT NULL&lt;/span&gt;" style="text;html=1;align=center;verticalAlign=middle;resizable=0;points=[];autosize=1;strokeColor=none;" vertex="1" parent="1">
          <mxGeometry x="132" y="455" width="221" height="18" as="geometry" />
        </mxCell>
        <mxCell id="sF2YvuJd_1t2Ah5inh9u-13" value="" style="endArrow=none;html=1;" edge="1" parent="1">
          <mxGeometry width="50" height="50" relative="1" as="geometry">
            <mxPoint x="106.5" y="479" as="sourcePoint" />
            <mxPoint x="387" y="479" as="targetPoint" />
          </mxGeometry>
        </mxCell>
        <mxCell id="sF2YvuJd_1t2Ah5inh9u-14" value="&lt;span style=&quot;text-align: left&quot;&gt;compra_equipamento_valor float NOT NULL&lt;/span&gt;" style="text;html=1;align=center;verticalAlign=middle;resizable=0;points=[];autosize=1;strokeColor=none;" vertex="1" parent="1">
          <mxGeometry x="132" y="491" width="247" height="18" as="geometry" />
        </mxCell>
        <mxCell id="sF2YvuJd_1t2Ah5inh9u-15" value="" style="endArrow=none;html=1;" edge="1" parent="1">
          <mxGeometry width="50" height="50" relative="1" as="geometry">
            <mxPoint x="107.58" y="445" as="sourcePoint" />
            <mxPoint x="388.08" y="445" as="targetPoint" />
          </mxGeometry>
        </mxCell>
        <mxCell id="sF2YvuJd_1t2Ah5inh9u-16" value="" style="endArrow=none;html=1;" edge="1" parent="1">
          <mxGeometry width="50" height="50" relative="1" as="geometry">
            <mxPoint x="107.58000000000004" y="415" as="sourcePoint" />
            <mxPoint x="388.0799999999999" y="415" as="targetPoint" />
          </mxGeometry>
        </mxCell>
        <mxCell id="wzX6BmNrg9t2hPxresNy-1" value="Equipamento" style="shape=table;startSize=30;container=1;collapsible=1;childLayout=tableLayout;fixedRows=1;rowLines=0;fontStyle=1;align=center;resizeLast=1;rounded=0;" vertex="1" parent="1">
          <mxGeometry x="552" y="331" width="227.63089471114313" height="182" as="geometry" />
        </mxCell>
        <mxCell id="wzX6BmNrg9t2hPxresNy-2" value="" style="shape=partialRectangle;collapsible=0;dropTarget=0;pointerEvents=0;fillColor=none;top=0;left=0;bottom=1;right=0;points=[[0,0.5],[1,0.5]];portConstraint=eastwest;" vertex="1" parent="wzX6BmNrg9t2hPxresNy-1">
          <mxGeometry y="30" width="227.63089471114313" height="30" as="geometry" />
        </mxCell>
        <mxCell id="wzX6BmNrg9t2hPxresNy-3" value="PK" style="shape=partialRectangle;connectable=0;fillColor=none;top=0;left=0;bottom=0;right=0;fontStyle=1;overflow=hidden;" vertex="1" parent="wzX6BmNrg9t2hPxresNy-2">
          <mxGeometry width="30" height="30" as="geometry" />
        </mxCell>
        <mxCell id="wzX6BmNrg9t2hPxresNy-4" value="equipamento_id int NOT NULL" style="shape=partialRectangle;connectable=0;fillColor=none;top=0;left=0;bottom=0;right=0;align=left;spacingLeft=6;fontStyle=5;overflow=hidden;" vertex="1" parent="wzX6BmNrg9t2hPxresNy-2">
          <mxGeometry x="30" width="197.63089471114313" height="30" as="geometry" />
        </mxCell>
        <mxCell id="wzX6BmNrg9t2hPxresNy-5" value="" style="shape=partialRectangle;collapsible=0;dropTarget=0;pointerEvents=0;fillColor=none;top=0;left=0;bottom=0;right=0;points=[[0,0.5],[1,0.5]];portConstraint=eastwest;" vertex="1" parent="wzX6BmNrg9t2hPxresNy-1">
          <mxGeometry y="60" width="227.63089471114313" height="30" as="geometry" />
        </mxCell>
        <mxCell id="wzX6BmNrg9t2hPxresNy-6" value="FK1" style="shape=partialRectangle;connectable=0;fillColor=none;top=0;left=0;bottom=0;right=0;editable=1;overflow=hidden;" vertex="1" parent="wzX6BmNrg9t2hPxresNy-5">
          <mxGeometry width="30" height="30" as="geometry" />
        </mxCell>
        <mxCell id="wzX6BmNrg9t2hPxresNy-7" value="tipo_equipamento_id NOT NULL" style="shape=partialRectangle;connectable=0;fillColor=none;top=0;left=0;bottom=0;right=0;align=left;spacingLeft=6;overflow=hidden;" vertex="1" parent="wzX6BmNrg9t2hPxresNy-5">
          <mxGeometry x="30" width="197.63089471114313" height="30" as="geometry" />
        </mxCell>
        <mxCell id="wzX6BmNrg9t2hPxresNy-8" value="" style="shape=partialRectangle;collapsible=0;dropTarget=0;pointerEvents=0;fillColor=none;top=0;left=0;bottom=0;right=0;points=[[0,0.5],[1,0.5]];portConstraint=eastwest;" vertex="1" parent="wzX6BmNrg9t2hPxresNy-1">
          <mxGeometry y="90" width="227.63089471114313" height="30" as="geometry" />
        </mxCell>
        <mxCell id="wzX6BmNrg9t2hPxresNy-9" value="" style="shape=partialRectangle;connectable=0;fillColor=none;top=0;left=0;bottom=0;right=0;editable=1;overflow=hidden;" vertex="1" parent="wzX6BmNrg9t2hPxresNy-8">
          <mxGeometry width="30" height="30" as="geometry" />
        </mxCell>
        <mxCell id="wzX6BmNrg9t2hPxresNy-10" value="Row 2" style="shape=partialRectangle;connectable=0;fillColor=none;top=0;left=0;bottom=0;right=0;align=left;spacingLeft=6;overflow=hidden;" vertex="1" parent="wzX6BmNrg9t2hPxresNy-8">
          <mxGeometry x="30" width="197.63089471114313" height="30" as="geometry" />
        </mxCell>
        <mxCell id="wzX6BmNrg9t2hPxresNy-11" value="" style="shape=partialRectangle;collapsible=0;dropTarget=0;pointerEvents=0;fillColor=none;top=0;left=0;bottom=0;right=0;points=[[0,0.5],[1,0.5]];portConstraint=eastwest;" vertex="1" parent="wzX6BmNrg9t2hPxresNy-1">
          <mxGeometry y="120" width="227.63089471114313" height="30" as="geometry" />
        </mxCell>
        <mxCell id="wzX6BmNrg9t2hPxresNy-12" value="" style="shape=partialRectangle;connectable=0;fillColor=none;top=0;left=0;bottom=0;right=0;editable=1;overflow=hidden;" vertex="1" parent="wzX6BmNrg9t2hPxresNy-11">
          <mxGeometry width="30" height="30" as="geometry" />
        </mxCell>
        <mxCell id="wzX6BmNrg9t2hPxresNy-13" value="Row 3" style="shape=partialRectangle;connectable=0;fillColor=none;top=0;left=0;bottom=0;right=0;align=left;spacingLeft=6;overflow=hidden;" vertex="1" parent="wzX6BmNrg9t2hPxresNy-11">
          <mxGeometry x="30" width="197.63089471114313" height="30" as="geometry" />
        </mxCell>
        <mxCell id="wzX6BmNrg9t2hPxresNy-14" value="" style="endArrow=none;html=1;" edge="1" parent="1" target="wzX6BmNrg9t2hPxresNy-5">
          <mxGeometry width="50" height="50" relative="1" as="geometry">
            <mxPoint x="553" y="419.47" as="sourcePoint" />
            <mxPoint x="738" y="419.47" as="targetPoint" />
          </mxGeometry>
        </mxCell>
        <mxCell id="wzX6BmNrg9t2hPxresNy-15" value="Pedido" style="shape=table;startSize=30;container=1;collapsible=1;childLayout=tableLayout;fixedRows=1;rowLines=0;fontStyle=1;align=center;resizeLast=1;rounded=0;" vertex="1" parent="1">
          <mxGeometry x="346" y="610" width="204.92" height="150" as="geometry" />
        </mxCell>
        <mxCell id="wzX6BmNrg9t2hPxresNy-16" value="" style="shape=partialRectangle;collapsible=0;dropTarget=0;pointerEvents=0;fillColor=none;top=0;left=0;bottom=1;right=0;points=[[0,0.5],[1,0.5]];portConstraint=eastwest;" vertex="1" parent="wzX6BmNrg9t2hPxresNy-15">
          <mxGeometry y="30" width="204.92" height="30" as="geometry" />
        </mxCell>
        <mxCell id="wzX6BmNrg9t2hPxresNy-17" value="PK" style="shape=partialRectangle;connectable=0;fillColor=none;top=0;left=0;bottom=0;right=0;fontStyle=1;overflow=hidden;" vertex="1" parent="wzX6BmNrg9t2hPxresNy-16">
          <mxGeometry width="30" height="30" as="geometry" />
        </mxCell>
        <mxCell id="wzX6BmNrg9t2hPxresNy-18" value="pedido_id int NOT NULL" style="shape=partialRectangle;connectable=0;fillColor=none;top=0;left=0;bottom=0;right=0;align=left;spacingLeft=6;fontStyle=5;overflow=hidden;" vertex="1" parent="wzX6BmNrg9t2hPxresNy-16">
          <mxGeometry x="30" width="174.92" height="30" as="geometry" />
        </mxCell>
        <mxCell id="wzX6BmNrg9t2hPxresNy-19" value="" style="shape=partialRectangle;collapsible=0;dropTarget=0;pointerEvents=0;fillColor=none;top=0;left=0;bottom=0;right=0;points=[[0,0.5],[1,0.5]];portConstraint=eastwest;" vertex="1" parent="wzX6BmNrg9t2hPxresNy-15">
          <mxGeometry y="60" width="204.92" height="30" as="geometry" />
        </mxCell>
        <mxCell id="wzX6BmNrg9t2hPxresNy-20" value="FK1" style="shape=partialRectangle;connectable=0;fillColor=none;top=0;left=0;bottom=0;right=0;editable=1;overflow=hidden;" vertex="1" parent="wzX6BmNrg9t2hPxresNy-19">
          <mxGeometry width="30" height="30" as="geometry" />
        </mxCell>
        <mxCell id="wzX6BmNrg9t2hPxresNy-21" value="compra_id int NOT NULL" style="shape=partialRectangle;connectable=0;fillColor=none;top=0;left=0;bottom=0;right=0;align=left;spacingLeft=6;overflow=hidden;" vertex="1" parent="wzX6BmNrg9t2hPxresNy-19">
          <mxGeometry x="30" width="174.92" height="30" as="geometry" />
        </mxCell>
        <mxCell id="wzX6BmNrg9t2hPxresNy-22" value="" style="shape=partialRectangle;collapsible=0;dropTarget=0;pointerEvents=0;fillColor=none;top=0;left=0;bottom=0;right=0;points=[[0,0.5],[1,0.5]];portConstraint=eastwest;" vertex="1" parent="wzX6BmNrg9t2hPxresNy-15">
          <mxGeometry y="90" width="204.92" height="30" as="geometry" />
        </mxCell>
        <mxCell id="wzX6BmNrg9t2hPxresNy-23" value="FK2" style="shape=partialRectangle;connectable=0;fillColor=none;top=0;left=0;bottom=0;right=0;editable=1;overflow=hidden;" vertex="1" parent="wzX6BmNrg9t2hPxresNy-22">
          <mxGeometry width="30" height="30" as="geometry" />
        </mxCell>
        <mxCell id="wzX6BmNrg9t2hPxresNy-24" value="equipamento_id int NOT NULL" style="shape=partialRectangle;connectable=0;fillColor=none;top=0;left=0;bottom=0;right=0;align=left;spacingLeft=6;overflow=hidden;" vertex="1" parent="wzX6BmNrg9t2hPxresNy-22">
          <mxGeometry x="30" width="174.92" height="30" as="geometry" />
        </mxCell>
        <mxCell id="wzX6BmNrg9t2hPxresNy-25" value="" style="shape=partialRectangle;collapsible=0;dropTarget=0;pointerEvents=0;fillColor=none;top=0;left=0;bottom=0;right=0;points=[[0,0.5],[1,0.5]];portConstraint=eastwest;" vertex="1" parent="wzX6BmNrg9t2hPxresNy-15">
          <mxGeometry y="120" width="204.92" height="30" as="geometry" />
        </mxCell>
        <mxCell id="wzX6BmNrg9t2hPxresNy-26" value="" style="shape=partialRectangle;connectable=0;fillColor=none;top=0;left=0;bottom=0;right=0;editable=1;overflow=hidden;" vertex="1" parent="wzX6BmNrg9t2hPxresNy-25">
          <mxGeometry width="30" height="30" as="geometry" />
        </mxCell>
        <mxCell id="wzX6BmNrg9t2hPxresNy-27" value="" style="shape=partialRectangle;connectable=0;fillColor=none;top=0;left=0;bottom=0;right=0;align=left;spacingLeft=6;overflow=hidden;" vertex="1" parent="wzX6BmNrg9t2hPxresNy-25">
          <mxGeometry x="30" width="174.92" height="30" as="geometry" />
        </mxCell>
        <mxCell id="wzX6BmNrg9t2hPxresNy-28" value="" style="endArrow=none;html=1;entryX=1.015;entryY=0.018;entryDx=0;entryDy=0;entryPerimeter=0;" edge="1" parent="1" target="wzX6BmNrg9t2hPxresNy-22">
          <mxGeometry width="50" height="50" relative="1" as="geometry">
            <mxPoint x="346" y="700.47" as="sourcePoint" />
            <mxPoint x="531" y="700.47" as="targetPoint" />
          </mxGeometry>
        </mxCell>
        <mxCell id="wzX6BmNrg9t2hPxresNy-29" value="" style="endArrow=none;html=1;entryX=1.015;entryY=0.018;entryDx=0;entryDy=0;entryPerimeter=0;" edge="1" parent="1">
          <mxGeometry width="50" height="50" relative="1" as="geometry">
            <mxPoint x="346" y="728" as="sourcePoint" />
            <mxPoint x="553.9966258641293" y="728.0699999999999" as="targetPoint" />
          </mxGeometry>
        </mxCell>
        <mxCell id="wzX6BmNrg9t2hPxresNy-32" value="" style="edgeStyle=orthogonalEdgeStyle;endArrow=openThin;startArrow=ERone;endFill=0;startFill=0;entryX=0;entryY=0.5;entryDx=0;entryDy=0;" edge="1" parent="1" target="wzX6BmNrg9t2hPxresNy-19">
          <mxGeometry width="100" height="100" relative="1" as="geometry">
            <mxPoint x="229" y="517" as="sourcePoint" />
            <mxPoint x="274.0000000000002" y="685.5263157894738" as="targetPoint" />
            <Array as="points">
              <mxPoint x="223" y="517" />
              <mxPoint x="223" y="685" />
            </Array>
          </mxGeometry>
        </mxCell>
        <mxCell id="wzX6BmNrg9t2hPxresNy-34" value="" style="edgeStyle=elbowEdgeStyle;elbow=horizontal;endArrow=classic;html=1;entryX=1;entryY=0.5;entryDx=0;entryDy=0;" edge="1" parent="1" target="wzX6BmNrg9t2hPxresNy-22">
          <mxGeometry width="50" height="50" relative="1" as="geometry">
            <mxPoint x="780" y="375" as="sourcePoint" />
            <mxPoint x="812.63" y="710" as="targetPoint" />
            <Array as="points">
              <mxPoint x="839" y="446" />
              <mxPoint x="833" y="440" />
            </Array>
          </mxGeometry>
        </mxCell>
        <mxCell id="wzX6BmNrg9t2hPxresNy-35" value="Text" style="text;html=1;align=center;verticalAlign=middle;resizable=0;points=[];autosize=1;strokeColor=none;" vertex="1" parent="1">
          <mxGeometry x="833" y="196" width="40" height="20" as="geometry" />
        </mxCell>
        <mxCell id="wzX6BmNrg9t2hPxresNy-36" value="Tipo_Equipamento" style="shape=table;startSize=30;container=1;collapsible=1;childLayout=tableLayout;fixedRows=1;rowLines=0;fontStyle=1;align=center;resizeLast=1;rounded=0;" vertex="1" parent="1">
          <mxGeometry x="994" y="336" width="268.88451827199856" height="182" as="geometry" />
        </mxCell>
        <mxCell id="wzX6BmNrg9t2hPxresNy-37" value="" style="shape=partialRectangle;collapsible=0;dropTarget=0;pointerEvents=0;fillColor=none;top=0;left=0;bottom=1;right=0;points=[[0,0.5],[1,0.5]];portConstraint=eastwest;" vertex="1" parent="wzX6BmNrg9t2hPxresNy-36">
          <mxGeometry y="30" width="268.88451827199856" height="30" as="geometry" />
        </mxCell>
        <mxCell id="wzX6BmNrg9t2hPxresNy-38" value="PK" style="shape=partialRectangle;connectable=0;fillColor=none;top=0;left=0;bottom=0;right=0;fontStyle=1;overflow=hidden;" vertex="1" parent="wzX6BmNrg9t2hPxresNy-37">
          <mxGeometry width="30" height="30" as="geometry" />
        </mxCell>
        <mxCell id="wzX6BmNrg9t2hPxresNy-39" value="tipo_equipamento_id int NOT NULL" style="shape=partialRectangle;connectable=0;fillColor=none;top=0;left=0;bottom=0;right=0;align=left;spacingLeft=6;fontStyle=5;overflow=hidden;" vertex="1" parent="wzX6BmNrg9t2hPxresNy-37">
          <mxGeometry x="30" width="238.88451827199856" height="30" as="geometry" />
        </mxCell>
        <mxCell id="wzX6BmNrg9t2hPxresNy-40" value="" style="shape=partialRectangle;collapsible=0;dropTarget=0;pointerEvents=0;fillColor=none;top=0;left=0;bottom=0;right=0;points=[[0,0.5],[1,0.5]];portConstraint=eastwest;" vertex="1" parent="wzX6BmNrg9t2hPxresNy-36">
          <mxGeometry y="60" width="268.88451827199856" height="30" as="geometry" />
        </mxCell>
        <mxCell id="wzX6BmNrg9t2hPxresNy-41" value="" style="shape=partialRectangle;connectable=0;fillColor=none;top=0;left=0;bottom=0;right=0;editable=1;overflow=hidden;" vertex="1" parent="wzX6BmNrg9t2hPxresNy-40">
          <mxGeometry width="30" height="30" as="geometry" />
        </mxCell>
        <mxCell id="wzX6BmNrg9t2hPxresNy-42" value="tipo_equipamento_descricao varchar" style="shape=partialRectangle;connectable=0;fillColor=none;top=0;left=0;bottom=0;right=0;align=left;spacingLeft=6;overflow=hidden;" vertex="1" parent="wzX6BmNrg9t2hPxresNy-40">
          <mxGeometry x="30" width="238.88451827199856" height="30" as="geometry" />
        </mxCell>
        <mxCell id="wzX6BmNrg9t2hPxresNy-43" value="" style="shape=partialRectangle;collapsible=0;dropTarget=0;pointerEvents=0;fillColor=none;top=0;left=0;bottom=0;right=0;points=[[0,0.5],[1,0.5]];portConstraint=eastwest;" vertex="1" parent="wzX6BmNrg9t2hPxresNy-36">
          <mxGeometry y="90" width="268.88451827199856" height="30" as="geometry" />
        </mxCell>
        <mxCell id="wzX6BmNrg9t2hPxresNy-44" value="" style="shape=partialRectangle;connectable=0;fillColor=none;top=0;left=0;bottom=0;right=0;editable=1;overflow=hidden;" vertex="1" parent="wzX6BmNrg9t2hPxresNy-43">
          <mxGeometry width="30" height="30" as="geometry" />
        </mxCell>
        <mxCell id="wzX6BmNrg9t2hPxresNy-45" value="Row 2" style="shape=partialRectangle;connectable=0;fillColor=none;top=0;left=0;bottom=0;right=0;align=left;spacingLeft=6;overflow=hidden;" vertex="1" parent="wzX6BmNrg9t2hPxresNy-43">
          <mxGeometry x="30" width="238.88451827199856" height="30" as="geometry" />
        </mxCell>
        <mxCell id="wzX6BmNrg9t2hPxresNy-46" value="" style="shape=partialRectangle;collapsible=0;dropTarget=0;pointerEvents=0;fillColor=none;top=0;left=0;bottom=0;right=0;points=[[0,0.5],[1,0.5]];portConstraint=eastwest;" vertex="1" parent="wzX6BmNrg9t2hPxresNy-36">
          <mxGeometry y="120" width="268.88451827199856" height="30" as="geometry" />
        </mxCell>
        <mxCell id="wzX6BmNrg9t2hPxresNy-47" value="" style="shape=partialRectangle;connectable=0;fillColor=none;top=0;left=0;bottom=0;right=0;editable=1;overflow=hidden;" vertex="1" parent="wzX6BmNrg9t2hPxresNy-46">
          <mxGeometry width="30" height="30" as="geometry" />
        </mxCell>
        <mxCell id="wzX6BmNrg9t2hPxresNy-48" value="Row 3" style="shape=partialRectangle;connectable=0;fillColor=none;top=0;left=0;bottom=0;right=0;align=left;spacingLeft=6;overflow=hidden;" vertex="1" parent="wzX6BmNrg9t2hPxresNy-46">
          <mxGeometry x="30" width="238.88451827199856" height="30" as="geometry" />
        </mxCell>
        <mxCell id="wzX6BmNrg9t2hPxresNy-53" style="edgeStyle=none;rounded=1;orthogonalLoop=1;jettySize=auto;html=1;entryX=1;entryY=0.5;entryDx=0;entryDy=0;" edge="1" parent="wzX6BmNrg9t2hPxresNy-36" source="wzX6BmNrg9t2hPxresNy-37" target="wzX6BmNrg9t2hPxresNy-37">
          <mxGeometry relative="1" as="geometry" />
        </mxCell>
        <mxCell id="wzX6BmNrg9t2hPxresNy-50" value="" style="endArrow=none;html=1;" edge="1" parent="1" target="wzX6BmNrg9t2hPxresNy-5">
          <mxGeometry width="50" height="50" relative="1" as="geometry">
            <mxPoint x="552" y="417" as="sourcePoint" />
            <mxPoint x="759.9966258641293" y="417.06999999999994" as="targetPoint" />
            <Array as="points">
              <mxPoint x="783" y="418" />
            </Array>
          </mxGeometry>
        </mxCell>
        <mxCell id="wzX6BmNrg9t2hPxresNy-52" value="" style="edgeStyle=elbowEdgeStyle;elbow=horizontal;endArrow=classic;html=1;" edge="1" parent="1">
          <mxGeometry width="50" height="50" relative="1" as="geometry">
            <mxPoint x="994" y="372" as="sourcePoint" />
            <mxPoint x="776" y="403.9569670024671" as="targetPoint" />
            <Array as="points">
              <mxPoint x="970" y="372" />
              <mxPoint x="926" y="269" />
              <mxPoint x="1327" y="596" />
              <mxPoint x="847" y="441" />
            </Array>
          </mxGeometry>
        </mxCell>
      </root>
    </mxGraphModel>
  </diagram>
  <diagram id="aAam46Fy_rejXPX0zAR7" name="Page-2">
    <mxGraphModel dx="984" dy="393" grid="1" gridSize="10" guides="1" tooltips="1" connect="1" arrows="1" fold="1" page="1" pageScale="1" pageWidth="827" pageHeight="1169" math="0" shadow="0">
      <root>
        <mxCell id="Edgv8XxiWsP6Gd0bjRq_-0" />
        <mxCell id="Edgv8XxiWsP6Gd0bjRq_-1" parent="Edgv8XxiWsP6Gd0bjRq_-0" />
      </root>
    </mxGraphModel>
  </diagram>
</mxfile>
